<svg width="660" height="400" viewBox="0 0 660 400" fill="none" xmlns="http://www.w3.org/2000/svg">
<path d="M649.682 32.5519C666.438 25.0559 661.094 0 642.73 0H328.546C237.764 0 161.403 61.8357 139.252 145.693H139.46C136.788 155.575 134.843 165.742 133.727 176.169C133.079 182.628 132.742 189.164 132.742 195.804V202.574C133.286 222.313 136.71 241.325 142.65 259.222L192.399 236.968L233.536 218.578L214.653 199.695L329.739 84.6091L392.586 147.456L420.936 134.773L500.747 99.0823L649.656 32.5L649.682 32.5519Z" fill="white"/>
<path d="M329.764 128.65L258.694 199.72L263.96 205.011L362.186 161.099L329.764 128.65Z" fill="white"/>
<path d="M10.0919 367.33C-6.66395 374.826 -1.32077 399.882 17.0432 399.882H331.228C422.036 399.882 498.397 338.047 520.522 254.19H520.314C522.986 244.308 524.931 234.14 526.046 223.713C526.695 217.254 527.032 210.718 527.032 204.078V197.308C526.487 177.57 523.063 158.557 517.124 140.66L467.375 162.915L426.238 181.305L445.12 200.187L330.034 315.273L267.187 252.426L238.837 265.11L159.027 300.8L10.0919 367.33Z" fill="white"/>
<path d="M330.033 271.232L401.103 200.162L395.811 194.871L297.611 238.784L330.033 271.232Z" fill="white"/>
<path d="M329.77 128.66L258.7 199.73L329.77 270.801L400.841 199.73L329.77 128.66Z" fill="white"/>
</svg>
