<svg width="241" height="158" viewBox="0 0 241 158" fill="none" xmlns="http://www.w3.org/2000/svg">
<path d="M171.488 10.0318C196.228 4.51654 220.756 20.0059 226.443 44.6629L226.444 44.6626C226.451 44.695 226.458 44.7277 226.465 44.7601C226.483 44.8402 226.503 44.9205 226.521 45.0008C226.703 45.8189 226.86 46.6372 226.996 47.4541C232.066 76.5754 214.933 104.884 187.198 114.124L132.647 133.602L128.307 114.131L65.0643 128.23C40.2114 133.77 15.5724 118.114 10.0318 93.2615C4.49145 68.4085 20.1478 43.7692 45.0009 38.2289L171.488 10.0318Z" fill="#FFB21D"/>
<rect x="37.7153" y="85.332" width="36.2866" height="36.2866" transform="rotate(-57.5672 37.7153 85.332)" fill="white"/>
<path fill-rule="evenodd" clip-rule="evenodd" d="M75.2018 74.9993C77.7292 71.0219 83.0026 69.8465 86.9801 72.3736C90.9576 74.901 92.1332 80.1743 89.6058 84.1519L77.8351 102.677L77.7768 102.64L77.7407 102.698L59.215 90.9267C55.2375 88.3993 54.062 83.126 56.5894 79.1485C59.1168 75.1709 64.3901 73.9954 68.3676 76.5228L72.5465 79.1781L75.2018 74.9993Z" fill="#FF81F3"/>
<rect x="146.023" y="61.1855" width="36.2866" height="36.2866" transform="rotate(-57.5672 146.023 61.1855)" fill="white"/>
<path fill-rule="evenodd" clip-rule="evenodd" d="M164.898 55.0017C167.426 51.0244 172.699 49.849 176.676 52.3761L180.856 55.0321L183.512 50.8533C186.039 46.8759 191.313 45.7002 195.29 48.2276C199.267 50.7551 200.443 56.0284 197.916 60.0059L186.144 78.5316L186.086 78.4945L186.05 78.5516L167.524 66.781C163.546 64.2535 162.371 58.9793 164.898 55.0017Z" fill="#FF81F3"/>
<circle cx="123.487" cy="92.499" r="9.54351" transform="rotate(-12.5672 123.487 92.499)" fill="black"/>
</svg>
